<svg width="24" height="24" viewBox="0 0 24 24" fill="none" xmlns="http://www.w3.org/2000/svg">
<g clip-path="url(#clip0_2_2)">
<line x1="19" y1="12.5" x2="24" y2="12.5" stroke="white"/>
<line x1="19" y1="18.5" x2="24" y2="18.5" stroke="white"/>
<line x1="19" y1="15.5" x2="24" y2="15.5" stroke="white"/>
<line x1="20" y1="9.5" x2="24" y2="9.5" stroke="white"/>
<path d="M24.1319 6.36363V6.5909H23.475V6.36363H24.1319ZM23.6241 6.10226H23.9267V7.11931C23.9267 7.14725 23.9309 7.16903 23.9395 7.18465C23.948 7.1998 23.9598 7.21046 23.975 7.21661C23.9906 7.22277 24.0086 7.22584 24.029 7.22584C24.0432 7.22584 24.0574 7.22466 24.0716 7.22229C24.0858 7.21945 24.0967 7.21732 24.1042 7.2159L24.1518 7.44104C24.1367 7.44578 24.1154 7.45122 24.0879 7.45738C24.0604 7.46401 24.0271 7.46803 23.9878 7.46945C23.9148 7.47229 23.8509 7.46259 23.796 7.44033C23.7415 7.41808 23.6992 7.38351 23.6689 7.33664C23.6386 7.28976 23.6236 7.23058 23.6241 7.15908V6.10226Z" fill="white"/>
<path d="M22.6561 6.36365L22.8564 6.74504L23.0616 6.36365H23.372L23.0559 6.9091L23.3805 7.45456H23.0716L22.8564 7.07743L22.6447 7.45456H22.3322L22.6561 6.9091L22.3436 6.36365H22.6561Z" fill="white"/>
<path d="M21.7246 7.47585C21.6124 7.47585 21.5158 7.45312 21.4348 7.40766C21.3543 7.36174 21.2923 7.29687 21.2488 7.21306C21.2052 7.12878 21.1834 7.02911 21.1834 6.91406C21.1834 6.80184 21.2052 6.70336 21.2488 6.6186C21.2923 6.53385 21.3536 6.4678 21.4327 6.42045C21.5122 6.3731 21.6055 6.34943 21.7125 6.34943C21.7845 6.34943 21.8515 6.36103 21.9135 6.38423C21.976 6.40695 22.0305 6.44128 22.0769 6.48721C22.1238 6.53314 22.1602 6.5909 22.1863 6.66051C22.2123 6.72963 22.2253 6.8106 22.2253 6.9034V6.9865H21.3041V6.799H21.9405C21.9405 6.75544 21.931 6.71685 21.9121 6.68323C21.8932 6.64962 21.8669 6.62334 21.8333 6.6044C21.8001 6.58499 21.7615 6.57528 21.7175 6.57528C21.6716 6.57528 21.6309 6.58593 21.5953 6.60724C21.5603 6.62807 21.5328 6.65624 21.513 6.69176C21.4931 6.72679 21.4829 6.76586 21.4824 6.80894V6.98721C21.4824 7.04119 21.4924 7.08783 21.5122 7.12713C21.5326 7.16642 21.5613 7.19673 21.5982 7.21803C21.6351 7.23934 21.6789 7.24999 21.7296 7.24999C21.7632 7.24999 21.794 7.24526 21.8219 7.23579C21.8498 7.22632 21.8738 7.21212 21.8936 7.19318C21.9135 7.17424 21.9287 7.15104 21.9391 7.12357L22.2189 7.14204C22.2047 7.20927 22.1756 7.26799 22.1316 7.31818C22.088 7.36789 22.0317 7.40672 21.9625 7.43465C21.8939 7.46212 21.8146 7.47585 21.7246 7.47585Z" fill="white"/>
<path d="M20 6.25355V6H21.1946V6.25355H20.7493V7.45455H20.4453V6.25355H20Z" fill="white"/>
<path d="M15 6H3.00003C2.46959 6 1.96089 6.22827 1.58582 6.6346C1.21074 7.04093 1.00003 7.59203 1.00003 8.16667V16.8333C0.998732 17.0777 1.03942 17.3201 1.12003 17.5483C1.278 18.0344 1.58976 18.4441 2.00003 18.7048C2.30408 18.8955 2.6487 18.9972 3.00003 19H15C15.3336 18.9983 15.6616 18.9072 15.9548 18.7347C16.2479 18.5622 16.4971 18.3137 16.68 18.0115C16.887 17.6593 16.9979 17.2509 17 16.8333V8.16667C17 7.59203 16.7893 7.04093 16.4142 6.6346C16.0391 6.22827 15.5304 6 15 6ZM9.25001 17.5565H3.00003C2.92901 17.5557 2.85871 17.541 2.79253 17.5131L6.41252 12.1615L9.38001 15.3735L10.32 16.3919L11.3875 17.5565H9.25001ZM15.6675 16.8333C15.6668 17.0249 15.5963 17.2084 15.4713 17.3439C15.3462 17.4793 15.1768 17.5557 15 17.5565H13.28L11.28 15.3735L12.985 13.5481L15.68 16.7981L15.6675 16.8333ZM15.6675 14.6315L13.5 12.0152C13.4396 11.9438 13.3668 11.8859 13.2857 11.8451C13.2046 11.8042 13.1169 11.781 13.0275 11.7769C12.937 11.7722 12.8467 11.7887 12.7626 11.8251C12.6785 11.8616 12.6026 11.9171 12.54 11.9881L10.335 14.3552L6.80752 10.5419C6.7373 10.4701 6.65431 10.4146 6.56361 10.3787C6.47291 10.3429 6.37641 10.3274 6.28002 10.3333C6.18426 10.343 6.09142 10.3743 6.00747 10.4251C5.92352 10.476 5.8503 10.5452 5.79252 10.6285L2.33253 15.75V8.16667C2.33319 7.9751 2.40372 7.79159 2.52876 7.65613C2.6538 7.52067 2.8232 7.44426 3.00003 7.44354H15C15.1768 7.44426 15.3462 7.52067 15.4713 7.65613C15.5963 7.79159 15.6668 7.9751 15.6675 8.16667V14.6315Z" fill="white"/>
<path d="M10.3325 12.5C11.0684 12.5 11.665 11.8537 11.665 11.0565C11.665 10.2592 11.0684 9.61295 10.3325 9.61295C9.59658 9.61295 9 10.2592 9 11.0565C9 11.8537 9.59658 12.5 10.3325 12.5Z" fill="white"/>
</g>
<defs>
<clipPath id="clip0_2_2">
<rect width="24" height="24" fill="white"/>
</clipPath>
</defs>
</svg>
