<svg xmlns="http://www.w3.org/2000/svg" xml:space="preserve" width="1.70666in" height="1.70666in" version="1.1" style="shape-rendering:geometricPrecision; text-rendering:geometricPrecision; image-rendering:optimizeQuality; fill-rule:evenodd; clip-rule:evenodd" viewBox="0 0 1707 1707" xmlns:xlink="http://www.w3.org/1999/xlink">
 <defs>
  <style type="text/css">
   
    .fil0 {fill:#000002}
    .fil4 {fill:url(#id0)}
    .fil3 {fill:url(#id1)}
    .fil6 {fill:url(#id2)}
    .fil1 {fill:url(#id3)}
    .fil2 {fill:url(#id4)}
    .fil5 {fill:url(#id5)}
    .fil7 {fill:url(#id6)}
   
  </style>
  <linearGradient id="id0" gradientUnits="userSpaceOnUse" x1="769.941" y1="443.406" x2="769.941" y2="370.35">
   <stop offset="0" style="stop-opacity:1; stop-color:yellow"></stop>
   <stop offset="1" style="stop-opacity:1; stop-color:#FFCC00"></stop>
  </linearGradient>
  <linearGradient id="id1" gradientUnits="objectBoundingBox" xlink:href="#id0" x1="50%" y1="100%" x2="50%" y2="0%">
  </linearGradient>
  <linearGradient id="id2" gradientUnits="userSpaceOnUse" x1="853.331" y1="749.118" x2="853.331" y2="851.543">
   <stop offset="0" style="stop-opacity:1; stop-color:red"></stop>
   <stop offset="1" style="stop-opacity:1; stop-color:#990000"></stop>
  </linearGradient>
  <linearGradient id="id3" gradientUnits="userSpaceOnUse" x1="853.331" y1="1434.97" x2="853.331" y2="595.394">
   <stop offset="0" style="stop-opacity:1; stop-color:#E6E6E6"></stop>
   <stop offset="1" style="stop-opacity:1; stop-color:#CCCCCC"></stop>
  </linearGradient>
  <linearGradient id="id4" gradientUnits="userSpaceOnUse" xlink:href="#id2" x1="853.331" y1="271.697" x2="853.331" y2="542.059">
  </linearGradient>
  <linearGradient id="id5" gradientUnits="userSpaceOnUse" xlink:href="#id3" x1="853.335" y1="1281.27" x2="853.335" y2="904.878">
  </linearGradient>
  <linearGradient id="id6" gradientUnits="userSpaceOnUse" xlink:href="#id0" x1="634.969" y1="1154.96" x2="634.969" y2="1034.49">
  </linearGradient>
 </defs>
 <g id="Layer_x0020_1">
  <metadata id="CorelCorpID_0Corel-Layer"></metadata>
  <path class="fil0" d="M1159 1232l-335 0c-35,0 -35,-54 0,-54l335 0c35,0 35,54 0,54zm442 256l-1496 0c-58,0 -105,-47 -105,-105l0 -1059c0,-58 47,-106 105,-106l1496 0c58,0 106,48 106,106l0 1059c0,58 -48,105 -106,105zm-1496 -1216c-28,0 -52,23 -52,52l0 218 1600 0 0 -218c0,-29 -23,-52 -52,-52l-1496 0zm-52 323l0 788c0,29 24,52 52,52l1496 0c29,0 52,-23 52,-52l0 -788 -1600 0zm248 -98l-127 0c-15,0 -26,-12 -26,-27l0 -126c0,-15 11,-27 26,-27l127 0c14,0 26,12 26,27l0 126c0,15 -12,27 -26,27zm-100 -54l73 0 0 -73 -73 0 0 73zm366 54l-127 0c-14,0 -26,-12 -26,-27l0 -126c0,-15 12,-27 26,-27l127 0c15,0 27,12 27,27l0 126c0,15 -12,27 -27,27zm-100 -54l73 0 0 -73 -73 0 0 73zm366 54l-126 0c-15,0 -27,-12 -27,-27l0 -126c0,-15 12,-27 27,-27l126 0c15,0 27,12 27,27l0 126c0,15 -12,27 -27,27zm-100 -54l73 0 0 -73 -73 0 0 73zm480 892l-720 0c-35,0 -64,-29 -64,-65l0 -510c0,-35 29,-64 64,-64l720 0c36,0 65,29 65,64l0 510c0,36 -29,65 -65,65zm-720 -586c-6,0 -11,5 -11,11l0 92 742 0 0 -92c0,-6 -5,-11 -11,-11l-720 0zm-11 156l0 365c0,6 5,11 11,11l720 0c6,0 11,-5 11,-11l0 -365 -742 0zm104 -78c-23,0 -61,6 -61,-27 0,-32 38,-26 61,-26 35,0 35,53 0,53zm135 0c-23,0 -60,6 -60,-27 0,-32 37,-26 60,-26 35,0 35,53 0,53zm135 0c-22,0 -60,6 -60,-27 0,-32 38,-26 60,-26 35,0 35,53 0,53zm-134 381l-174 0c-15,0 -27,-12 -27,-26l0 -174c0,-15 12,-27 27,-27l174 0c15,0 27,12 27,27l0 174c0,14 -12,26 -27,26zm-147 -53l120 0 0 -121 -120 0 0 121zm584 -144l-335 0c-35,0 -35,-53 0,-53l335 0c35,0 35,53 0,53zm0 74l-335 0c-35,0 -35,-54 0,-54l335 0c35,0 35,54 0,54zm0 73l-335 0c-35,0 -35,-53 0,-53l335 0c35,0 35,53 0,53z"></path>
  <path class="fil1" d="M493 696l720 0c36,0 65,29 65,64l0 510c0,36 -29,65 -65,65l-720 0c-35,0 -64,-29 -64,-65l0 -510c0,-35 29,-64 64,-64zm-388 739l1496 0c29,0 52,-23 52,-52l0 -788 -1600 0 0 788c0,29 24,52 52,52z"></path>
  <path class="fil2" d="M53 542l1600 0 0 -218c0,-29 -23,-52 -52,-52l-1496 0c-28,0 -52,23 -52,52l0 218zm807 -72c0,15 -12,27 -27,27l-126 0c-15,0 -27,-12 -27,-27l0 -126c0,-15 12,-27 27,-27l126 0c15,0 27,12 27,27l0 126zm-266 0c0,15 -12,27 -27,27l-127 0c-14,0 -26,-12 -26,-27l0 -126c0,-15 12,-27 26,-27l127 0c15,0 27,12 27,27l0 126zm-267 0c0,15 -12,27 -26,27l-127 0c-15,0 -26,-12 -26,-27l0 -126c0,-15 11,-27 26,-27l127 0c14,0 26,12 26,27l0 126z"></path>
  <polygon class="fil3" points="274,443 274,370 201,370 201,443 "></polygon>
  <polygon class="fil3" points="467,370 467,443 540,443 540,370 "></polygon>
  <polygon class="fil4" points="733,370 733,443 806,443 806,370 "></polygon>
  <path class="fil5" d="M1224 905l-742 0 0 365c0,6 5,11 11,11l720 0c6,0 11,-5 11,-11l0 -365zm-400 53l335 0c35,0 35,53 0,53l-335 0c-35,0 -35,-53 0,-53zm0 73l335 0c35,0 35,54 0,54l-335 0c-35,0 -35,-54 0,-54zm0 74l335 0c35,0 35,53 0,53l-335 0c-35,0 -35,-53 0,-53zm0 73l335 0c35,0 35,54 0,54l-335 0c-35,0 -35,-54 0,-54zm-75 -170l0 174c0,14 -12,26 -27,26l-174 0c-15,0 -27,-12 -27,-26l0 -174c0,-15 12,-27 27,-27l174 0c15,0 27,12 27,27z"></path>
  <path class="fil6" d="M482 852l742 0 0 -92c0,-6 -5,-11 -11,-11l-720 0c-6,0 -11,5 -11,11l0 92zm374 -78c35,0 35,53 0,53 -22,0 -60,6 -60,-27 0,-32 38,-26 60,-26zm-135 0c35,0 35,53 0,53 -23,0 -60,6 -60,-27 0,-32 37,-26 60,-26zm-135 0c35,0 35,53 0,53 -23,0 -61,6 -61,-27 0,-32 38,-26 61,-26z"></path>
  <polygon class="fil7" points="695,1034 575,1034 575,1155 695,1155 "></polygon>
 </g>
</svg>