<svg width="24" height="24" viewBox="0 0 24 24" fill="none" xmlns="http://www.w3.org/2000/svg">
<line y1="12.5" x2="5" y2="12.5" stroke="white"/>
<line y1="18.5" x2="5" y2="18.5" stroke="white"/>
<line y1="15.5" x2="5" y2="15.5" stroke="white"/>
<line y1="9.5" x2="4" y2="9.5" stroke="white"/>
<path d="M4.13194 6.36363V6.5909H3.47498V6.36363H4.13194ZM3.62412 6.10226H3.92668V7.11931C3.92668 7.14725 3.93094 7.16903 3.93946 7.18465C3.94799 7.1998 3.95982 7.21046 3.97498 7.21661C3.9906 7.22277 4.00859 7.22584 4.02895 7.22584C4.04316 7.22584 4.05736 7.22466 4.07157 7.22229C4.08577 7.21945 4.09666 7.21732 4.10424 7.2159L4.15182 7.44104C4.13667 7.44578 4.11536 7.45122 4.0879 7.45738C4.06044 7.46401 4.02706 7.46803 3.98776 7.46945C3.91484 7.47229 3.85092 7.46259 3.796 7.44033C3.74155 7.41808 3.69917 7.38351 3.66887 7.33664C3.63856 7.28976 3.62365 7.23058 3.62412 7.15908V6.10226Z" fill="white"/>
<path d="M2.65608 6.36365L2.85636 6.74504L3.06162 6.36365H3.37199L3.05594 6.9091L3.38051 7.45456H3.07156L2.85636 7.07743L2.64471 7.45456H2.33221L2.65608 6.9091L2.34358 6.36365H2.65608Z" fill="white"/>
<path d="M1.7246 7.47585C1.61239 7.47585 1.5158 7.45312 1.43483 7.40766C1.35434 7.36174 1.29231 7.29687 1.24875 7.21306C1.20519 7.12878 1.18341 7.02911 1.18341 6.91406C1.18341 6.80184 1.20519 6.70336 1.24875 6.6186C1.29231 6.53385 1.35363 6.4678 1.4327 6.42045C1.51225 6.3731 1.60552 6.34943 1.71253 6.34943C1.7845 6.34943 1.8515 6.36103 1.91352 6.38423C1.97602 6.40695 2.03048 6.44128 2.07688 6.48721C2.12375 6.53314 2.16021 6.5909 2.18625 6.66051C2.21229 6.72963 2.22531 6.8106 2.22531 6.9034V6.9865H1.30415V6.799H1.94051C1.94051 6.75544 1.93104 6.71685 1.9121 6.68323C1.89316 6.64962 1.86689 6.62334 1.83327 6.6044C1.80012 6.58499 1.76154 6.57528 1.7175 6.57528C1.67157 6.57528 1.63085 6.58593 1.59534 6.60724C1.5603 6.62807 1.53284 6.65624 1.51296 6.69176C1.49307 6.72679 1.48289 6.76586 1.48242 6.80894V6.98721C1.48242 7.04119 1.49236 7.08783 1.51225 7.12713C1.53261 7.16642 1.56125 7.19673 1.59818 7.21803C1.63512 7.23934 1.67891 7.24999 1.72958 7.24999C1.76319 7.24999 1.79397 7.24526 1.82191 7.23579C1.84984 7.22632 1.87375 7.21212 1.89364 7.19318C1.91352 7.17424 1.92868 7.15104 1.93909 7.12357L2.21892 7.14204C2.20472 7.20927 2.1756 7.26799 2.13156 7.31818C2.088 7.36789 2.03166 7.40672 1.96253 7.43465C1.89387 7.46212 1.81457 7.47585 1.7246 7.47585Z" fill="white"/>
<path d="M0 6.25355V6H1.1946V6.25355H0.74929V7.45455H0.445313V6.25355H0Z" fill="white"/>
<path d="M22 6H10C9.46959 6 8.96089 6.22827 8.58582 6.6346C8.21074 7.04093 8.00003 7.59203 8.00003 8.16667V16.8333C7.99873 17.0777 8.03942 17.3201 8.12003 17.5483C8.278 18.0344 8.58976 18.4441 9.00003 18.7048C9.30408 18.8955 9.6487 18.9972 10 19H22C22.3336 18.9983 22.6616 18.9072 22.9548 18.7347C23.2479 18.5622 23.4971 18.3137 23.68 18.0115C23.887 17.6593 23.9979 17.2509 24 16.8333V8.16667C24 7.59203 23.7893 7.04093 23.4142 6.6346C23.0391 6.22827 22.5304 6 22 6ZM16.25 17.5565H10C9.92901 17.5557 9.85871 17.541 9.79253 17.5131L13.4125 12.1615L16.38 15.3735L17.32 16.3919L18.3875 17.5565H16.25ZM22.6675 16.8333C22.6668 17.0249 22.5963 17.2084 22.4713 17.3439C22.3462 17.4793 22.1768 17.5557 22 17.5565H20.28L18.28 15.3735L19.985 13.5481L22.68 16.7981L22.6675 16.8333ZM22.6675 14.6315L20.5 12.0152C20.4396 11.9438 20.3668 11.8859 20.2857 11.8451C20.2046 11.8042 20.1169 11.781 20.0275 11.7769C19.937 11.7722 19.8467 11.7887 19.7626 11.8251C19.6785 11.8616 19.6026 11.9171 19.54 11.9881L17.335 14.3552L13.8075 10.5419C13.7373 10.4701 13.6543 10.4146 13.5636 10.3787C13.4729 10.3429 13.3764 10.3274 13.28 10.3333C13.1843 10.343 13.0914 10.3743 13.0075 10.4251C12.9235 10.476 12.8503 10.5452 12.7925 10.6285L9.33253 15.75V8.16667C9.33319 7.9751 9.40372 7.79159 9.52876 7.65613C9.6538 7.52067 9.8232 7.44426 10 7.44354H22C22.1768 7.44426 22.3462 7.52067 22.4713 7.65613C22.5963 7.79159 22.6668 7.9751 22.6675 8.16667V14.6315Z" fill="white"/>
<path d="M17.3325 12.5C18.0684 12.5 18.665 11.8537 18.665 11.0565C18.665 10.2592 18.0684 9.61295 17.3325 9.61295C16.5966 9.61295 16 10.2592 16 11.0565C16 11.8537 16.5966 12.5 17.3325 12.5Z" fill="white"/>
</svg>
