<svg width="24" height="24" viewBox="0 0 24 24" fill="none" xmlns="http://www.w3.org/2000/svg">
<line x1="14" y1="6.5" x2="24" y2="6.5" stroke="white"/>
<path d="M0 16H24M0 19H24" stroke="white"/>
<line y1="12.5" x2="24" y2="12.5" stroke="white"/>
<line y1="9.5" x2="24" y2="9.5" stroke="white"/>
<path d="M11.5074 5.27273V5.84091H9.86499V5.27273H11.5074ZM10.2379 4.61932H10.9943V7.16194C10.9943 7.23178 11.0049 7.28623 11.0262 7.32529C11.0475 7.36317 11.0771 7.3898 11.115 7.40519C11.1541 7.42058 11.199 7.42827 11.2499 7.42827C11.2854 7.42827 11.321 7.42531 11.3565 7.41939C11.392 7.41229 11.4192 7.40697 11.4381 7.40341L11.5571 7.96627C11.5192 7.97811 11.466 7.99172 11.3973 8.00711C11.3287 8.02368 11.2452 8.03374 11.1469 8.03729C10.9647 8.04439 10.8049 8.02013 10.6675 7.96449C10.5314 7.90886 10.4255 7.82245 10.3497 7.70526C10.274 7.58807 10.2367 7.44011 10.2379 7.26137V4.61932Z" fill="white"/>
<path d="M7.81772 5.27274L8.31843 6.22622L8.83156 5.27274H9.60749L8.81736 6.63637L9.6288 8.00001H8.85642L8.31843 7.05718L7.78931 8.00001H7.00806L7.81772 6.63637L7.03647 5.27274H7.81772Z" fill="white"/>
<path d="M5.48909 8.05326C5.20855 8.05326 4.96707 7.99645 4.76466 7.88281C4.56343 7.76799 4.40836 7.60582 4.29946 7.3963C4.19056 7.1856 4.13611 6.93643 4.13611 6.64879C4.13611 6.36825 4.19056 6.12204 4.29946 5.91015C4.40836 5.69827 4.56165 5.53314 4.75933 5.41477C4.9582 5.2964 5.19139 5.23721 5.45891 5.23721C5.63883 5.23721 5.80633 5.26621 5.96139 5.32422C6.11764 5.38103 6.25377 5.46685 6.36977 5.58167C6.48696 5.69649 6.57811 5.84091 6.64321 6.01491C6.70832 6.18773 6.74087 6.39015 6.74087 6.62216V6.8299H4.43796V6.36115H6.02886C6.02886 6.25225 6.00519 6.15577 5.95784 6.07173C5.91049 5.98769 5.8448 5.92199 5.76075 5.87464C5.67789 5.82611 5.58142 5.80184 5.47134 5.80184C5.35652 5.80184 5.25472 5.82848 5.16594 5.88174C5.07834 5.93383 5.00969 6.00426 4.95997 6.09304C4.91026 6.18063 4.88481 6.27829 4.88362 6.38601V6.83167C4.88362 6.96662 4.90848 7.08321 4.9582 7.18146C5.0091 7.27971 5.08071 7.35547 5.17304 7.40873C5.26537 7.462 5.37486 7.48863 5.50152 7.48863C5.58556 7.48863 5.66251 7.4768 5.73234 7.45312C5.80218 7.42945 5.86196 7.39394 5.91168 7.34659C5.96139 7.29924 5.99927 7.24124 6.02531 7.17258L6.72489 7.21875C6.68938 7.38683 6.61658 7.53361 6.50649 7.65909C6.39759 7.78338 6.25673 7.88044 6.08391 7.95028C5.91227 8.01894 5.714 8.05326 5.48909 8.05326Z" fill="white"/>
<path d="M1.17755 4.99753V4.36365H4.16406V4.99753H3.05078V8.00001H2.29083V4.99753H1.17755Z" fill="white"/>
</svg>
